# xmcd CD database file
#
# Track frame offsets:
#	150
#	15123
#	35284
#	50311
#	70977
#	88434
#	109321
#	134977
#	153815
#	169384
#	188839
#	216263
#
# Disc length: 3111 seconds
#
# Revision: 0
# Processed by: cddbd v1.5.2PL0 Copyright (c) Steve Scherf et al.
# Submitted via: CDex 1.70beta2
#
DISCID=a90c250c
DTITLE=Jazz - 夜 Cafe -private relaxin'-
DYEAR=2010
DGENRE=Jazz
TTITLE0=Monta Lamminta Paivaa
TTITLE1=A Moment of Love
TTITLE2=Angels In The Early Morning
TTITLE3=Don't Explain
TTITLE4=I Look in Your Eyes
TTITLE5=365
TTITLE6=Lonely Dreamer
TTITLE7=Valvoa
TTITLE8=Hullun Laula
TTITLE9=Wild Nights
TTITLE10=Vanishing
TTITLE11=Back to Day One
EXTD=YEAR: 2010
EXTT0=
EXTT1=
EXTT2=
EXTT3=
EXTT4=
EXTT5=
EXTT6=
EXTT7=
EXTT8=
EXTT9=
EXTT10=
EXTT11=
PLAYORDER=
